<svg width="72" height="48" viewBox="0 0 72 48" fill="none" xmlns="http://www.w3.org/2000/svg">
<path d="M71.5 24C71.5 30.4082 67.6038 36.271 61.1785 40.5545C54.7567 44.8358 45.8562 47.5 36 47.5C26.1438 47.5 17.2433 44.8358 10.8215 40.5545C4.39618 36.271 0.5 30.4082 0.5 24C0.5 17.5918 4.39618 11.729 10.8215 7.44546C17.2433 3.16424 26.1438 0.5 36 0.5C45.8562 0.5 54.7567 3.16424 61.1785 7.44546C67.6038 11.729 71.5 17.5918 71.5 24Z" stroke="#EFEEEA"/>
<path d="M55.3536 24.3536C55.5488 24.1583 55.5488 23.8417 55.3536 23.6464L52.1716 20.4645C51.9763 20.2692 51.6597 20.2692 51.4645 20.4645C51.2692 20.6597 51.2692 20.9763 51.4645 21.1716L54.2929 24L51.4645 26.8284C51.2692 27.0237 51.2692 27.3403 51.4645 27.5355C51.6597 27.7308 51.9763 27.7308 52.1716 27.5355L55.3536 24.3536ZM18 24.5H55V23.5H18V24.5Z" fill="#EFEEEA"/>
</svg>
